# xmcd
#
# Track frame offsets: 
#        150
#        15160
#        31335
#        55002
#        65862
#        82547
#        93687
#        107995
#        121535
#        137042
#        155967
#        173970
#
# Disc length: 2569 seconds
#
# Revision: 0
# Processed by: cddbd v1.4PL0 Copyright (c) Steve Scherf et al.
# Submitted via: ExactAudioCopy v0.90b2
#
DISCID=950a070c
DTITLE=Frederik Mey - recital à ö'olympia
DYEAR=1976
DGENRE=
TTITLE0=Voilà les musiciens
TTITLE1=Au dessus des nuages
TTITLE2=L'assassin est toujours le jardinier
TTITLE3=Approche ton  fauteul du mien
TTITLE4=Diplomatenjagd
TTITLE5=Les bulles de savon
TTITLE6=La mappemonde
TTITLE7=Je dirais j'ai tout vecu
TTITLE8=La boite à musique
TTITLE9=Mon testament
TTITLE10=Bonsoir mes amis
TTITLE11=Les lumières se sont éteintes
EXTD=
EXTT0=
EXTT1=
EXTT2=
EXTT3=
EXTT4=
EXTT5=
EXTT6=
EXTT7=
EXTT8=
EXTT9=
EXTT10=
EXTT11=
PLAYORDER=
